<svg xmlns="http://www.w3.org/2000/svg" width="1200" height="630" viewBox="0 0 1200 630" role="img" aria-labelledby="title desc">
<title id="title">Proof Before Post — visão explicativa</title><desc id="desc">Verifique as evidências antes de publicar. Etapas: Selecione a afirmação, Compare fontes, Revise e gere o recibo.</desc>
<defs><linearGradient id="bg" x1="0" y1="0" x2="1" y2="1"><stop stop-color="#2563EB"/><stop offset="1" stop-color="#111827"/></linearGradient><filter id="shadow"><feDropShadow dx="0" dy="12" stdDeviation="18" flood-opacity=".22"/></filter><pattern id="dots" width="28" height="28" patternUnits="userSpaceOnUse"><circle cx="3" cy="3" r="2" fill="#fff" opacity=".12"/></pattern></defs>
<rect width="1200" height="630" rx="28" fill="url(#bg)"/><rect width="1200" height="630" rx="28" fill="url(#dots)"/>
<circle cx="1080" cy="80" r="170" fill="#93C5FD" opacity=".15"/><circle cx="90" cy="590" r="150" fill="#93C5FD" opacity=".11"/>
<text x="70" y="92" fill="#fff" font-size="44" font-weight="800" font-family="Arial, Helvetica, sans-serif">Proof Before Post</text>
<text x="70" y="135" fill="#fff" opacity=".9" font-size="24" font-family="Arial, Helvetica, sans-serif">Verifique as evidências antes de publicar</text>
<g font-family="Arial, Helvetica, sans-serif"><g><rect x="100" y="260" width="250" height="58" rx="29" fill="#fff" fill-opacity=".18" stroke="#fff" stroke-opacity=".48"/><text x="225" y="297" text-anchor="middle" fill="#fff" font-size="20" font-weight="650">Conteúdo</text><path d="M 370 289 H 425" stroke="#fff" stroke-width="4" stroke-linecap="round"/><path d="M 415 280 L 425 289 L 415 298" fill="none" stroke="#fff" stroke-width="4" stroke-linecap="round" stroke-linejoin="round"/></g><g><rect x="450" y="260" width="250" height="58" rx="29" fill="#fff" fill-opacity=".18" stroke="#fff" stroke-opacity=".48"/><text x="575" y="297" text-anchor="middle" fill="#fff" font-size="20" font-weight="650">Evidências</text><path d="M 720 289 H 775" stroke="#fff" stroke-width="4" stroke-linecap="round"/><path d="M 765 280 L 775 289 L 765 298" fill="none" stroke="#fff" stroke-width="4" stroke-linecap="round" stroke-linejoin="round"/></g><g><rect x="800" y="260" width="250" height="58" rx="29" fill="#fff" fill-opacity=".18" stroke="#fff" stroke-opacity=".48"/><text x="925" y="297" text-anchor="middle" fill="#fff" font-size="20" font-weight="650">Decisão humana</text></g></g>
<g filter="url(#shadow)" font-family="Arial, Helvetica, sans-serif"><g transform="translate(70 360)"><rect width="330" height="150" rx="22" fill="#ffffff" fill-opacity=".96"/><circle cx="45" cy="44" r="24" fill="#2563EB"/><text x="45" y="52" text-anchor="middle" fill="#fff" font-size="22" font-weight="700">1</text><text x="28" y="100" fill="#172033" font-size="20" font-weight="700">Selecione a afirmação</text><rect x="28" y="118" width="170" height="8" rx="4" fill="#93C5FD" opacity=".72"/></g><g transform="translate(440 360)"><rect width="330" height="150" rx="22" fill="#ffffff" fill-opacity=".96"/><circle cx="45" cy="44" r="24" fill="#2563EB"/><text x="45" y="52" text-anchor="middle" fill="#fff" font-size="22" font-weight="700">2</text><text x="28" y="100" fill="#172033" font-size="20" font-weight="700">Compare fontes</text><rect x="28" y="118" width="205" height="8" rx="4" fill="#93C5FD" opacity=".72"/></g><g transform="translate(810 360)"><rect width="330" height="150" rx="22" fill="#ffffff" fill-opacity=".96"/><circle cx="45" cy="44" r="24" fill="#2563EB"/><text x="45" y="52" text-anchor="middle" fill="#fff" font-size="22" font-weight="700">3</text><text x="28" y="100" fill="#172033" font-size="20" font-weight="700">Revise e gere o recibo</text><rect x="28" y="118" width="240" height="8" rx="4" fill="#93C5FD" opacity=".72"/></g></g>
<text x="70" y="580" fill="#fff" opacity=".74" font-size="17" font-family="Arial, Helvetica, sans-serif">VISÃO DO PROJETO • FLUXO PRINCIPAL • FUNCIONALIDADES</text>
</svg>